#!OML:ASF F:\VICON\USERDATA\INSTALL\rory3\rory3.ASF
:FULLY-SPECIFIED
:DEGREES
338
root -1.93211 22.7298 0.993235 -179.422 -1.90348 169.858
lowerback 16.9179 -1.30536 -8.78745
upperback 3.50578 -4.13767 -2.53667
thorax -5.3105 -2.21158 3.14277
lowerneck -12.3149 0.190302 -7.18167
upperneck 13.6561 0.904317 5.38466
head 6.10325 0.552394 2.98138
rclavicle 9.43606e-015 -3.27995e-014
rhumerus -29.6875 -3.15619 -77.5442
rradius 49.2564
rwrist 2.19898
rhand -24.6697 2.40458
rfingers 7.12502
rthumb 1.83062 -27.5673
lclavicle 9.43606e-015 -3.27995e-014
lhumerus -12.0065 0.561037 88.1248
lradius 29.5784
lwrist 5.65198
lhand -23.1846 24.6093
lfingers 7.12502
lthumb 3.26485 54.5641
rfemur -49.7284 -3.25425 13.8643
rtibia 84.1491
rfoot -33.1758 -5.25101
rtoes -6.92729
lfemur -5.24564 8.03267 -33.1684
ltibia 33.1205
lfoot 0.572022 1.84899
ltoes -25.5576
339
root -1.92551 22.7734 0.929561 -179.175 -2.04151 169.906
lowerback 16.8148 -1.46348 -8.44218
upperback 3.47167 -4.25595 -2.50133
thorax -5.29915 -2.26632 3.00649
lowerneck -12.4097 0.184365 -7.28131
upperneck 13.5535 0.910064 5.42436
head 6.0859 0.552182 3.00999
rclavicle -2.8222e-014 -4.41869e-014
rhumerus -29.6614 -3.25213 -77.4484
rradius 49.1653
rwrist 2.26075
rhand -24.6446 2.32064
rfingers 7.12502
rthumb 1.85481 -27.651
lclavicle -2.8222e-014 -4.41869e-014
lhumerus -12.1309 0.636897 88.0787
lradius 29.4451
lwrist 5.58752
lhand -23.3753 24.2227
lfingers 7.12502
lthumb 3.08067 54.1802
rfemur -49.4142 -3.32891 13.9673
rtibia 83.8963
rfoot -33.3233 -5.3257
rtoes -6.35264
lfemur -5.19856 7.81933 -33.114
ltibia 32.7679
lfoot 1.33057 2.06265
ltoes -25.7615
340
root -1.91892 22.8194 0.866045 -178.876 -2.19961 169.957
lowerback 16.5588 -1.62285 -8.05762
upperback 3.49685 -4.35283 -2.46577
thorax -5.14762 -2.3204 2.83299
lowerneck -12.5216 0.152794 -7.51091
upperneck 13.3864 0.890143 5.56463
head 6.05148 0.540655 3.08918
rclavicle -5.60324e-015 -4.79568e-015
rhumerus -29.5271 -3.33999 -77.3708
rradius 49.0551
rwrist 2.30768
rhand -24.7406 2.11004
rfingers 7.12502
rthumb 1.76212 -27.8624
lclavicle -5.60324e-015 -4.79568e-015
lhumerus -12.1457 0.70215 88.0285
lradius 29.2441
lwrist 5.41529
lhand -23.4949 23.7822
lfingers 7.12502
lthumb 2.96517 53.7413
rfemur -49.2093 -3.42292 14.1088
rtibia 83.4612
rfoot -33.2063 -5.79171
rtoes -7.01837
lfemur -5.2076 7.58212 -33.0617
ltibia 32.3838
lfoot 2.17961 2.39309
ltoes -25.2604
341
root -1.91082 22.8709 0.802006 -178.568 -2.27979 170.029
lowerback 16.3876 -1.75722 -7.66491
upperback 3.43892 -4.42276 -2.42256
thorax -5.13449 -2.3493 2.66536
lowerneck -12.5711 0.158676 -7.70931
upperneck 13.2856 0.920153 5.66827
head 6.02435 0.552736 3.1563
rclavicle 3.60297e-016 -3.28989e-014
rhumerus -29.5178 -3.42916 -77.2775
rradius 48.9172
rwrist 2.36336
rhand -24.7802 2.12987
rfingers 7.12502
rthumb 1.72383 -27.8429
lclavicle 3.60297e-016 -3.28989e-014
lhumerus -12.3339 0.896398 87.9618
lradius 29.0965
lwrist 4.99571
lhand -23.2018 23.9498
lfingers 7.12502
lthumb 3.24822 53.9048
rfemur -48.9966 -3.48003 14.2773
rtibia 82.9175
rfoot -33.1474 -6.15876
rtoes -7.70384
lfemur -5.23853 7.42925 -32.9737
ltibia 31.978
lfoot 3.05708 2.77709
ltoes -24.5656
342
root -1.90473 22.9307 0.733224 -178.291 -2.39396 170.183
lowerback 16.2876 -1.92336 -7.15023
upperback 3.32779 -4.51844 -2.37767
thorax -5.22407 -2.38434 2.44262
lowerneck -12.575 0.187756 -7.77012
upperneck 13.24 0.968023 5.68368
head 6.00678 0.573826 3.17443
rclavicle 1.18028e-015 1.64991e-014
rhumerus -29.6485 -3.54948 -77.1727
rradius 48.8129
rwrist 2.51426
rhand -24.5829 2.39429
rfingers 7.12502
rthumb 1.91445 -27.5769
lclavicle 1.18028e-015 1.64991e-014
lhumerus -12.6745 1.03415 87.8363
lradius 29.0124
lwrist 4.60771
lhand -22.9301 24.176
lfingers 7.12502
lthumb 3.51062 54.1268
rfemur -48.6024 -3.54429 14.4612
rtibia 82.2763
rfoot -32.8849 -5.59853
rtoes -5.15529
lfemur -5.21156 7.21982 -32.7901
ltibia 31.5554
lfoot 3.98882 3.33375
ltoes -23.3682
343
root -1.89989 22.9948 0.66464 -177.95 -2.57471 170.245
lowerback 16.0999 -2.11408 -6.71181
upperback 3.24836 -4.65586 -2.34478
thorax -5.2254 -2.44556 2.2506
lowerneck -12.9719 0.142697 -7.59014
upperneck 13.5166 0.947252 5.3534
head 6.16724 0.547575 3.04547
rclavicle -8.27441e-015 1.33186e-014
rhumerus -29.664 -3.66786 -77.0899
rradius 48.6556
rwrist 2.73743
rhand -24.4898 2.57349
rfingers 7.12502
rthumb 2.00431 -27.3968
lclavicle -8.27441e-015 1.33186e-014
lhumerus -12.9584 1.21074 87.7043
lradius 28.946
lwrist 4.48685
lhand -22.9045 23.9691
lfingers 7.12502
lthumb 3.53531 53.9195
rfemur -48.2388 -3.71261 14.5269
rtibia 81.62
rfoot -32.1798 -4.20618
rtoes 0.165474
lfemur -5.26937 7.04003 -32.6952
ltibia 31.1177
lfoot 5.12545 3.82628
ltoes -22.0043
344
root -1.89039 23.0579 0.600333 -177.593 -2.67768 170.237
lowerback 15.9415 -2.25296 -6.39524
upperback 3.1784 -4.75393 -2.31197
thorax -5.22763 -2.48824 2.11999
lowerneck -13.4966 0.0368669 -7.40956
upperneck 13.8495 0.865841 4.93624
head 6.37271 0.484012 2.88445
rclavicle -1.66482e-015 -1.18277e-014
rhumerus -29.6711 -3.72902 -77.012
rradius 48.5718
rwrist 2.81194
rhand -24.47 2.87325
rfingers 7.12502
rthumb 2.02349 -27.0969
lclavicle -1.66482e-015 -1.18277e-014
lhumerus -13.2519 1.46543 87.57
lradius 28.9927
lwrist 4.34236
lhand -22.926 23.7057
lfingers 7.12502
lthumb 3.51461 53.6564
rfemur -47.9613 -3.80764 14.567
rtibia 80.9774
rfoot -32.9181 -5.32208
rtoes -3.45179
lfemur -5.38338 6.92953 -32.6515
ltibia 30.6675
lfoot 6.49534 4.20735
ltoes -20.6645
345
root -1.88244 23.1147 0.533671 -177.344 -2.78244 170.087
lowerback 15.8515 -2.35499 -6.21674
upperback 3.14113 -4.84345 -2.30859
thorax -5.22545 -2.53007 2.0366
lowerneck -13.687 0.00231558 -7.40955
upperneck 13.8399 0.860337 4.73414
head 6.40432 0.464045 2.81985
rclavicle 2.48481e-015 -1.40143e-014
rhumerus -29.6873 -3.73422 -76.9081
rradius 48.555
rwrist 2.77346
rhand -24.1285 2.42874
rfingers 7.12502
rthumb 2.3533 -27.538
lclavicle 2.48481e-015 -1.40143e-014
lhumerus -13.5174 1.89498 87.4766
lradius 28.9548
lwrist 3.70262
lhand -23.1115 23.5086
lfingers 7.12502
lthumb 3.33547 53.4623
rfemur -47.5455 -3.99569 14.4297
rtibia 80.3452
rfoot -33.2887 -5.57078
rtoes -4.39819
lfemur -5.36089 6.79046 -32.7256
ltibia 30.2182
lfoot 7.6309 4.85919
ltoes -19.9126
346
root -1.87508 23.1717 0.463021 -177.191 -2.90498 169.924
lowerback 15.8069 -2.46294 -6.04185
upperback 3.09986 -4.9481 -2.31801
thorax -5.25257 -2.57889 1.94775
lowerneck -13.7774 0.0289211 -7.52876
upperneck 13.8752 0.927896 4.72657
head 6.42637 0.489807 2.84447
rclavicle -8.90058e-014 -4.39314e-014
rhumerus -29.7741 -3.62481 -76.8241
rradius 48.5387
rwrist 2.82871
rhand -23.5848 0.508633
rfingers 7.12502
rthumb 2.8783 -29.4517
lclavicle -8.90058e-014 -4.39314e-014
lhumerus -13.7809 2.44628 87.3328
lradius 28.8069
lwrist 2.85906
lhand -23.2664 23.74
lfingers 7.12502
lthumb 3.18583 53.696
rfemur -46.9665 -4.1732 14.2577
rtibia 79.6637
rfoot -33.5306 -5.47739
rtoes -4.54825
lfemur -5.24937 6.59371 -32.7769
ltibia 29.7666
lfoot 8.78225 5.5587
ltoes -17.9628
347
root -1.86737 23.2328 0.39361 -176.976 -2.94431 169.804
lowerback 15.6777 -2.53845 -5.84441
upperback 3.0774 -4.99639 -2.30866
thorax -5.21812 -2.60263 1.84911
lowerneck -14.0136 0.0137748 -7.72679
upperneck 14.01 0.957438 4.77089
head 6.507 0.49734 2.89852
rclavicle 4.87022e-015 -7.15625e-015
rhumerus -29.8649 -3.50857 -76.7305
rradius 48.5745
rwrist 2.87415
rhand -23.5308 -0.820242
rfingers 7.12502
rthumb 2.93046 -30.7799
lclavicle 4.87022e-015 -7.15625e-015
lhumerus -14.044 2.80942 87.2125
lradius 28.7696
lwrist 2.46145
lhand -23.225 24.1167
lfingers 7.12502
lthumb 3.22579 54.072
rfemur -46.4582 -4.23411 14.1501
rtibia 78.9087
rfoot -33.6524 -5.51109
rtoes -4.42975
lfemur -5.25761 6.34594 -32.7738
ltibia 29.304
lfoot 10.0354 6.38151
ltoes -15.5464
